<svg width="172" height="177" viewBox="0 0 172 177" fill="none" xmlns="http://www.w3.org/2000/svg">
<path d="M109.994 110.635C89.4689 110.635 72.3485 96.1002 68.2828 76.791H0C4.82778 132.943 51.9245 177 109.283 177C166.643 177 213.791 132.943 218.566 76.791H151.706C147.642 96.1528 130.52 110.635 109.994 110.635Z" fill="#F2F2F2"/>
<path d="M135.143 68.0009C135.092 68.0009 135.092 68.0009 135.143 68.0009C135.092 64.9013 134.533 61.9538 133.517 59.2109C129.96 49.6567 120.765 42.898 109.994 42.898C99.2239 42.898 90.0283 49.7074 86.4713 59.2109C85.4276 62.0238 84.8943 65.0005 84.8965 68.0009H84.9472C84.9472 71.1005 85.5065 74.0481 86.522 76.791C90.079 86.3452 99.2746 93.1039 110.045 93.1039C120.815 93.1039 130.011 86.2945 133.568 76.791C134.584 74.0968 135.143 71.1005 135.143 68.0009Z" fill="#F2F2F2"/>
<path d="M110.045 25.4154C130.57 25.4154 147.691 39.9505 151.757 59.2597H220.039C215.214 3.05733 168.115 -41 110.706 -41C53.2947 -41 6.24865 3.05732 1.42282 59.209H68.3335C72.3973 39.8978 89.5196 25.4154 110.045 25.4154Z" fill="#F2F2F2"/>
</svg>
